<?xml version="1.0" encoding="UTF-8"?>
<svg xmlns="http://www.w3.org/2000/svg" xmlns:xlink="http://www.w3.org/1999/xlink" width="142px" height="42px" viewBox="0 0 142 42">
  <title>BigCommerceEssentials-White</title>
  <desc>Created with Sketch.</desc>
  <defs>
    <linearGradient x1="5.24792468e-06%" y1="50.0010701%" x2="100.000527%" y2="50.0010701%" id="linearGradient-1">
      <stop stop-color="#AFB4BE" offset="0%"></stop>
      <stop stop-color="#AFB3BD" stop-opacity="0" offset="100%"></stop>
    </linearGradient>
  </defs>
  <g id="Page-1" stroke="none" stroke-width="1" fill="none" fill-rule="evenodd">
    <g id="BC-Logos" transform="translate(-264.000000, -131.000000)">
      <g id="BigCommerceEssentials-White" transform="translate(264.000000, 131.000000)">
        <path d="M95.4192271,26.9429939 L95.4192271,18.173637 L91.886,27.0173542 C91.8711021,27.0545344 91.8347235,27.0789769 91.7948803,27.0789769 L91.0558753,27.0789769 C91.0160321,27.0789769 90.9799999,27.0545344 90.965102,27.0176985 L87.4142054,18.173637 L87.4142054,26.9429939 C87.4142054,27.0180428 87.352535,27.0789769 87.2770061,27.0789769 L85.5100461,27.0789769 C85.4345172,27.0789769 85.3728469,27.0180428 85.3728469,26.9429939 L85.3728469,15.6811884 C85.3728469,15.6061395 85.4345172,15.5455496 85.5100461,15.5455496 L88.0634765,15.5455496 C88.1767699,15.5455496 88.2786299,15.6140575 88.3205519,15.7183685 L91.425551,23.6325815 L94.513227,15.7187128 C94.5548026,15.6140575 94.6566626,15.5455496 94.7703024,15.5455496 L97.3230399,15.5455496 C97.3989152,15.5455496 97.4602391,15.6061395 97.4602391,15.6811884 L97.4602391,26.9429939 C97.4602391,27.0180428 97.3989152,27.0789769 97.3230399,27.0789769 L95.5564263,27.0789769 C95.4808975,27.0789769 95.4192271,27.0180428 95.4192271,26.9429939 L95.4192271,26.9429939 Z M121.741734,21.272329 C121.741734,17.7109504 124.315606,15.3069768 127.630215,15.3069768 C129.787985,15.3069768 131.175222,16.400005 132.012969,17.7071635 C132.074639,17.8032123 132.0393,17.9278347 131.938133,17.9825722 L130.614299,18.6972578 C130.527683,18.7440772 130.418201,18.712061 130.365192,18.6290941 C129.800458,17.7402126 128.760377,17.1053955 127.630215,17.1053955 C125.409389,17.1053955 123.760573,18.8346178 123.760573,21.272329 C123.760573,23.6763026 125.409389,25.439951 127.630215,25.439951 C128.761069,25.439951 129.801844,24.7889537 130.366231,23.911777 C130.418547,23.8308757 130.526644,23.7985152 130.612566,23.8429248 L131.946794,24.5286925 C132.052466,24.5830857 132.088498,24.7097737 132.023016,24.8082323 C131.156859,26.1160793 129.78556,27.2383697 127.630215,27.2383697 C124.315606,27.2383697 121.741734,24.8175273 121.741734,21.272329 L121.741734,21.272329 Z M134.029036,26.8755188 L134.029036,15.7490077 C134.029036,15.6364344 134.120848,15.5455496 134.234141,15.5455496 L141.794652,15.5455496 C141.908291,15.5455496 141.999757,15.6364344 141.999757,15.7490077 L141.999757,17.1229528 C141.999757,17.2351819 141.908291,17.3260667 141.794652,17.3260667 L136.275154,17.3260667 C136.16186,17.3260667 136.070048,17.4172959 136.070048,17.5298692 L136.070048,20.0970224 C136.070048,20.2092515 136.16186,20.3004806 136.275154,20.3004806 L141.673043,20.3004806 C141.786336,20.3004806 141.878149,20.3917097 141.878149,20.5039388 L141.878149,21.8778838 C141.878149,21.9901129 141.786336,22.081342 141.673043,22.081342 L136.275154,22.081342 C136.16186,22.081342 136.070048,22.1725711 136.070048,22.2848002 L136.070048,25.0943131 C136.070048,25.2068864 136.16186,25.2981155 136.275154,25.2981155 L141.794652,25.2981155 C141.908291,25.2981155 141.999757,25.3890004 141.999757,25.5015737 L141.999757,26.8755188 C141.999757,26.9877478 141.908291,27.0789769 141.794652,27.0789769 L134.234141,27.0789769 C134.120848,27.0789769 134.029036,26.9877478 134.029036,26.8755188 L134.029036,26.8755188 Z M118.154459,19.1420428 C118.154459,18.0352441 117.317405,17.3260667 116.166802,17.3260667 L113.566946,17.3260667 C113.45192,17.3260667 113.358375,17.4186729 113.358375,17.5329675 L113.358375,20.7855441 C113.358375,20.8994945 113.45192,20.9921007 113.566946,20.9921007 L116.166802,20.9921007 C117.317405,20.9921007 118.154459,20.2657102 118.154459,19.1420428 L118.154459,19.1420428 Z M117.902581,26.97742 L115.460018,22.874519 C115.422254,22.8118636 115.354001,22.7729621 115.280204,22.7729621 L113.566946,22.7729621 C113.45192,22.7729621 113.358375,22.8655683 113.358375,22.9795186 L113.358375,26.8720762 C113.358375,26.9863708 113.265177,27.0789769 113.150151,27.0789769 L111.525934,27.0789769 C111.410908,27.0789769 111.31771,26.9863708 111.31771,26.8720762 L111.31771,15.7521061 C111.31771,15.6381557 111.410908,15.5455496 111.525934,15.5455496 L116.428382,15.5455496 C118.73028,15.5455496 120.24744,17.0151992 120.24744,19.1592558 C120.24744,21.0578545 119.07016,22.1629318 117.768153,22.4886026 C117.627489,22.5237172 117.555078,22.6755363 117.631993,22.7977489 C118.118773,23.5685489 119.597476,25.9105556 120.136226,26.763634 C120.222842,26.9013383 120.122367,27.0789769 119.95849,27.0789769 L118.082048,27.0789769 C118.008252,27.0789769 117.939999,27.0400755 117.902581,26.97742 L117.902581,26.97742 Z M100.446748,26.8703548 L100.446748,15.7541717 C100.446748,15.6388443 100.540639,15.5455496 100.657051,15.5455496 L108.207167,15.5455496 C108.323232,15.5455496 108.417816,15.6388443 108.417816,15.7541717 L108.417816,17.1177889 C108.417816,17.2327721 108.323232,17.3260667 108.207167,17.3260667 L102.698063,17.3260667 C102.581651,17.3260667 102.487414,17.4197057 102.487414,17.5346888 L102.487414,20.0918585 C102.487414,20.2071859 102.581651,20.3004806 102.698063,20.3004806 L108.085559,20.3004806 C108.201624,20.3004806 108.295862,20.3937753 108.295862,20.5091027 L108.295862,21.8727199 C108.295862,21.9877031 108.201624,22.081342 108.085559,22.081342 L102.698063,22.081342 C102.581651,22.081342 102.487414,22.1746367 102.487414,22.2899641 L102.487414,25.0894934 C102.487414,25.2044765 102.581651,25.2981155 102.698063,25.2981155 L108.207167,25.2981155 C108.323232,25.2981155 108.417816,25.3914102 108.417816,25.5067376 L108.417816,26.8703548 C108.417816,26.9856822 108.323232,27.0789769 108.207167,27.0789769 L100.657051,27.0789769 C100.540639,27.0789769 100.446748,26.9856822 100.446748,26.8703548 L100.446748,26.8703548 Z M80.3519087,26.9429939 L80.3519087,18.173637 L76.8183352,27.0173542 C76.8037837,27.0545344 76.7677516,27.0789769 76.7275619,27.0789769 L75.9885569,27.0789769 C75.9487137,27.0789769 75.9126816,27.0545344 75.8977837,27.0176985 L72.3465405,18.173637 L72.3465405,26.9429939 C72.3465405,27.0180428 72.2855631,27.0789769 72.2096877,27.0789769 L70.4427277,27.0789769 C70.3671989,27.0789769 70.3058749,27.0180428 70.3058749,26.9429939 L70.3058749,15.6811884 C70.3058749,15.6061395 70.3671989,15.5455496 70.4427277,15.5455496 L72.9961582,15.5455496 C73.1094515,15.5455496 73.2113115,15.6140575 73.2532335,15.7183685 L76.3582327,23.6325815 L79.4459087,15.7187128 C79.4874842,15.6140575 79.5893442,15.5455496 79.702984,15.5455496 L82.256068,15.5455496 C82.3315969,15.5455496 82.3929208,15.6061395 82.3929208,15.6811884 L82.3929208,26.9429939 C82.3929208,27.0180428 82.3315969,27.0789769 82.256068,27.0789769 L80.489108,27.0789769 C80.4132326,27.0789769 80.3519087,27.0180428 80.3519087,26.9429939 L80.3519087,26.9429939 Z M66.2647335,21.3205255 C66.2647335,18.9344535 64.7991961,17.1532478 62.5430307,17.1532478 C60.2695421,17.1532478 58.8213278,18.9344535 58.8213278,21.3205255 C58.8213278,23.6897288 60.2695421,25.4878032 62.5430307,25.4878032 C64.7991961,25.4878032 66.2647335,23.6897288 66.2647335,21.3205255 L66.2647335,21.3205255 Z M56.8004106,21.3205255 C56.8004106,18.4511112 58.4516521,16.2192681 60.9531131,15.5565659 C65.1803051,14.4370296 69.0599949,18.3643575 68.1408292,22.746454 C67.576095,25.4368526 65.4110493,27.286222 62.5430307,27.286222 C59.1750663,27.286222 56.8004106,24.7617571 56.8004106,21.3205255 L56.8004106,21.3205255 Z M45.3844631,21.3205255 C45.3844631,17.7588027 47.9583349,15.3551733 51.272944,15.3551733 C53.4310604,15.3551733 54.8179508,16.4482016 55.6556977,17.7550158 C55.7173681,17.8510646 55.6820289,17.9760313 55.5812082,18.0304245 L54.2570276,18.7454543 C54.1700655,18.7922738 54.0605832,18.7599132 54.0079209,18.6769464 C53.4435331,17.7880648 52.4031055,17.1532478 51.272944,17.1532478 C49.0521178,17.1532478 47.4033016,18.8824701 47.4033016,21.3205255 C47.4033016,23.7241548 49.0521178,25.4878032 51.272944,25.4878032 C52.4037984,25.4878032 53.4445725,24.8368059 54.0089603,23.9596293 C54.0609297,23.8790722 54.1693725,23.8467117 54.2552953,23.8907771 L55.5895233,24.5765447 C55.6951945,24.6309379 55.7312266,24.7576259 55.6657451,24.8560846 C54.7999347,26.1639316 53.4286352,27.286222 51.272944,27.286222 C47.9583349,27.286222 45.3844631,24.8653796 45.3844631,21.3205255 L45.3844631,21.3205255 Z M42.0126877,18.9434043 L43.5728094,18.0975553 L43.5728094,20.7073969 L38.7005038,20.7073969 C38.5646905,20.7073969 38.4548618,20.8165276 38.4548618,20.9507894 L38.4548618,22.6077169 C38.4548618,22.7423229 38.5646905,22.8514536 38.7005038,22.8514536 L41.339857,22.8514536 C41.4417171,22.8514536 41.5241752,22.9333876 41.5241752,23.0342561 L41.5241752,24.1451859 C41.5241752,24.2019889 41.5016552,24.2560379 41.4580008,24.293218 C40.9674096,24.7066753 40.0485904,25.11669 39.0653291,25.11669 C36.9377014,25.11669 35.402525,23.5089918 35.402525,21.3298206 C35.402525,19.1513378 36.9377014,17.5429511 39.0653291,17.5429511 C40.1968764,17.5429511 41.1337117,18.1371453 41.6953278,18.8711095 C41.7677385,18.9657812 41.9070166,19.0005516 42.0126877,18.9434043 L42.0126877,18.9434043 Z M18.5031116,24.6984131 L18.5031116,22.526127 C18.5031116,22.4001276 18.606011,22.2982264 18.7328164,22.2982264 L21.7120496,22.2982264 C22.6717514,22.2982264 23.1945636,22.8865682 23.1945636,23.6122701 C23.1945636,24.442283 22.6364122,24.926658 21.7120496,24.926658 L18.7328164,24.926658 C18.6011606,24.926658 18.5031116,24.8244126 18.5031116,24.6984131 L18.5031116,24.6984131 Z M18.5031116,19.9087117 L18.5031116,17.8328187 C18.5031116,17.768442 18.5557739,17.7161143 18.6209089,17.7161143 L21.6074178,17.7161143 C22.4448183,17.7161143 22.967977,18.2173581 22.967977,18.9265355 C22.967977,19.6697947 22.4448183,20.1366124 21.6074178,20.1366124 L18.7328164,20.1366124 C18.606011,20.1366124 18.5031116,20.0347112 18.5031116,19.9087117 L18.5031116,19.9087117 Z M30.5690232,26.8789614 C30.5690232,26.9942888 30.4744389,27.0879277 30.3580274,27.0879277 L28.3031568,27.0879277 C28.1867454,27.0879277 28.092161,26.9942888 28.092161,26.8789614 L28.092161,15.763811 C28.092161,15.6484836 28.1867454,15.5548446 28.3031568,15.5548446 L30.3580274,15.5548446 C30.4744389,15.5548446 30.5690232,15.6484836 30.5690232,15.763811 L30.5690232,26.8789614 Z M39.0653291,15.3644684 C41.2262173,15.3644684 42.6688881,16.3404479 43.5728094,17.5281479 L43.5728094,0.409432322 C43.5728094,0.0748107653 43.1896217,-0.117975317 42.9169555,0.0796304174 L21.5824725,15.5548446 L22.1478997,15.5548446 C24.3631825,15.5548446 25.4968086,16.9552978 25.4968086,18.4941438 C25.4968086,19.6890733 24.8679787,20.5724467 24.0233025,20.9642155 C23.8812528,21.0303136 23.8867962,21.2299849 24.0319641,21.2891978 C25.0162648,21.6909502 25.7237417,22.737159 25.7237417,23.9582522 C25.7237417,25.7046876 24.572446,27.0879277 22.3401865,27.0879277 L16.2563007,27.0879277 C16.1294953,27.0879277 16.0262494,26.9860265 16.0262494,26.860027 L16.0262494,19.5833852 L0.146475915,31.097534 C-0.130347819,31.3213035 0.00996959332,31.7471542 0.36024343,31.7471542 L43.2104094,31.7471542 C43.4106649,31.7471542 43.5728094,31.5860401 43.5728094,31.3877459 L43.5728094,25.5618193 C42.4274036,26.6269624 40.9189048,27.295517 39.0653291,27.295517 C35.6467812,27.295517 32.8560238,24.9614284 32.8560238,21.3298206 C32.8560238,17.681344 35.6467812,15.3644684 39.0653291,15.3644684 L39.0653291,15.3644684 Z" id="Fill-1" fill="#FFFFFF"></path>
        <path d="M43.2101669,31.7470853 L13.1264602,31.7470853 L0.146233391,41.158833 C0.0481844342,41.238013 0.00245135172,41.3426683 2.61125004e-05,41.4449138 L2.61125004e-05,41.4449138 L2.61125004e-05,41.4628154 C0.0045301282,41.641831 0.141382913,41.8077647 0.360347369,41.8077647 L0.360347369,41.8077647 L43.2101669,41.8077647 C43.4104224,41.8077647 43.5725669,41.6473392 43.5725669,41.4490449 L43.5725669,41.4490449 L43.5725669,31.387677 C43.5725669,31.5859713 43.4104224,31.7470853 43.2101669,31.7470853" id="Fill-4" fill="url(#linearGradient-1)"></path>
        <path d="M136.017281,40.6601367 L136.673828,39.6438787 C136.726837,39.5616003 136.838744,39.5443873 136.917045,39.6036001 C137.646003,40.1582044 138.412725,40.4811211 139.137525,40.4811211 C139.877223,40.4811211 140.311687,40.0817785 140.311687,39.5547151 L140.311687,39.5226988 C140.311687,38.9312587 139.651676,38.6596369 138.622681,38.228278 C137.367447,37.6846901 136.306231,37.1094302 136.306231,35.7186163 L136.306231,35.6872886 C136.306231,34.1529179 137.528552,33.2099874 139.120895,33.2099874 C140.021351,33.2099874 140.978281,33.51156 141.760248,34.0331152 C141.832658,34.0816559 141.853793,34.1787375 141.810138,34.2541306 L141.203829,35.295864 C141.15567,35.3781423 141.048613,35.4025849 140.967887,35.35129 C140.362964,34.9691604 139.698794,34.6961616 139.088674,34.6961616 C138.413418,34.6961616 138.011174,35.0634879 138.011174,35.5272073 L138.011174,35.5592236 C138.011174,36.1189917 138.687123,36.4064495 139.683897,36.8536444 C141.00288,37.4447403 142,38.0523607 142,39.3787978 L142,39.4108141 C142,41.0567252 140.729868,41.9679837 139.088674,41.9679837 C138.11546,41.9679837 136.994306,41.6285425 136.052274,40.8801194 C135.985753,40.8271032 135.971202,40.7313987 136.017281,40.6601367 L136.017281,40.6601367 Z M132.428967,30.2693112 L133.845306,30.2693112 C133.960332,30.2693112 134.054223,30.3622616 134.054223,30.4765562 L134.054223,41.6003131 C134.054223,41.714952 133.960332,41.8079024 133.845306,41.8079024 L132.428967,41.8079024 C132.313941,41.8079024 132.22005,41.714952 132.22005,41.6003131 L132.22005,30.4765562 C132.22005,30.3622616 132.313941,30.2693112 132.428967,30.2693112 L132.428967,30.2693112 Z M128.004291,38.9629307 L128.004291,38.2162289 C128.004291,38.1463439 127.96133,38.0833442 127.895155,38.0602787 C127.492912,37.919476 126.987769,37.8127552 126.428578,37.8127552 C125.382954,37.8127552 124.77214,38.3401628 124.77214,39.2348968 L124.77214,39.282749 C124.77214,40.1137947 125.350733,40.5936944 126.155219,40.6095304 C127.200497,40.6095304 128.004291,39.9220414 128.004291,38.9629307 L128.004291,38.9629307 Z M122.986817,39.3787978 L122.986817,39.282749 C122.986817,37.4771008 124.241013,36.5816783 126.042619,36.5816783 C126.830822,36.5816783 127.409414,36.7255794 127.9887,36.9335129 L127.9887,36.5658423 C127.9887,35.4315028 127.313098,34.8400626 126.155219,34.8400626 C125.432498,34.8400626 124.822031,35.0387011 124.31273,35.2607494 C124.202902,35.3086017 124.076096,35.2535199 124.034867,35.1416351 L123.647175,34.0906067 C123.609757,33.9900826 123.655491,33.8768207 123.753539,33.8317226 C124.519915,33.4771339 125.318858,33.2420037 126.396357,33.2420037 C127.505731,33.2420037 128.358376,33.5456418 128.905441,34.0892297 C129.468096,34.6483093 129.757739,35.495191 129.757739,36.5500063 L129.757739,41.6003131 C129.757739,41.714952 129.664194,41.8079024 129.548822,41.8079024 L128.180987,41.8079024 C128.065961,41.8079024 127.97207,41.714952 127.97207,41.6003131 L127.97207,40.7689232 C127.473856,41.4722481 126.718221,41.9679837 125.608155,41.9679837 C124.192854,41.9679837 122.986817,41.024709 122.986817,39.3787978 L122.986817,39.3787978 Z M119.285902,33.3377082 L120.702242,33.3377082 C120.817614,33.3377082 120.910813,33.4306587 120.910813,33.5452975 L120.910813,41.6003131 C120.910813,41.714952 120.817614,41.8079024 120.702242,41.8079024 L119.285902,41.8079024 C119.17053,41.8079024 119.076639,41.714952 119.076639,41.6003131 L119.076639,33.5452975 C119.076639,33.4306587 119.17053,33.3377082 119.285902,33.3377082 L119.285902,33.3377082 Z M119.237744,30.3333437 L120.750054,30.3333437 C120.865426,30.3333437 120.958624,30.4262941 120.958624,30.540933 L120.958624,31.8997306 C120.958624,32.0143695 120.865426,32.1073199 120.750054,32.1073199 L119.237744,32.1073199 C119.122372,32.1073199 119.029173,32.0143695 119.029173,31.8997306 L119.029173,30.540933 C119.029173,30.4262941 119.122372,30.3333437 119.237744,30.3333437 L119.237744,30.3333437 Z M113.189544,39.7464684 L113.189544,35.0955042 C113.189544,34.9808653 113.096345,34.8875706 112.980973,34.8875706 L112.48172,34.8875706 C112.366348,34.8875706 112.27315,34.7949644 112.27315,34.6803256 L112.27315,33.5452975 C112.27315,33.4306587 112.366348,33.3377082 112.48172,33.3377082 L112.980973,33.3377082 C113.096345,33.3377082 113.189544,33.2447578 113.189544,33.1301189 L113.189544,31.2600939 C113.189544,31.1454551 113.283435,31.0525046 113.398461,31.0525046 L114.814454,31.0525046 C114.92948,31.0525046 115.023025,31.1454551 115.023025,31.2600939 L115.023025,33.1301189 C115.023025,33.2447578 115.11657,33.3377082 115.231942,33.3377082 L116.712377,33.3377082 C116.827749,33.3377082 116.921294,33.4306587 116.921294,33.5452975 L116.921294,34.6803256 C116.921294,34.7949644 116.827749,34.8875706 116.712377,34.8875706 L115.231942,34.8875706 C115.11657,34.8875706 115.023025,34.9808653 115.023025,35.0955042 L115.023025,39.3946338 C115.023025,40.0501065 115.344889,40.3217283 115.924174,40.3217283 C116.19199,40.3217283 116.44179,40.2759416 116.680156,40.1912534 C116.789292,40.1516634 116.90501,40.2301549 116.90501,40.3458266 L116.90501,41.4667399 C116.90501,41.5290511 116.870364,41.5872312 116.814237,41.6147721 C116.417191,41.8120336 115.960206,41.9359675 115.393393,41.9359675 C114.138505,41.9359675 113.189544,41.4085598 113.189544,39.7464684 L113.189544,39.7464684 Z M103.891177,33.3377082 L105.290886,33.3377082 C105.406258,33.3377082 105.50015,33.4306587 105.50015,33.5452975 L105.50015,34.5687851 C105.998363,33.8330996 106.673619,33.1779712 107.831844,33.1779712 C109.472692,33.1779712 110.453528,34.3129992 110.453528,36.1344835 L110.453528,41.6003131 C110.453528,41.714952 110.359983,41.8079024 110.244611,41.8079024 L108.828964,41.8079024 C108.713592,41.8079024 108.620047,41.714952 108.620047,41.6003131 L108.620047,36.6622354 C108.620047,35.4631748 108.072982,34.8080464 107.108083,34.8080464 C106.175406,34.8080464 105.50015,35.5113713 105.50015,36.6780714 L105.50015,41.6003131 C105.50015,41.714952 105.406258,41.8079024 105.290886,41.8079024 L103.891177,41.8079024 C103.775805,41.8079024 103.682606,41.714952 103.682606,41.6003131 L103.682606,33.5452975 C103.682606,33.4306587 103.775805,33.3377082 103.891177,33.3377082 L103.891177,33.3377082 Z M99.5929599,37.0137257 C99.7180329,37.0137257 99.8143496,36.904595 99.8008375,36.7803168 C99.6667564,35.5468302 99.066683,34.6965058 98.0667915,34.6965058 C97.1261451,34.6965058 96.443267,35.477978 96.2610276,36.7734316 C96.2430116,36.8997754 96.3396747,37.0137257 96.4678659,37.0137257 L99.5929599,37.0137257 Z M94.4323973,37.6533624 L94.4323973,37.5407891 C94.4323973,35.0001439 95.9762353,33.1779712 98.0667915,33.1779712 C100.382895,33.1779712 101.605562,35.0961927 101.605562,37.6371821 C101.605562,37.7256572 101.605562,37.90364 101.597593,38.1005572 C101.594129,38.1897208 101.519639,38.25995 101.429905,38.25995 L96.4917718,38.25995 C96.3611554,38.25995 96.262067,38.37872 96.28528,38.5060965 C96.5160242,39.7709109 97.3607004,40.4497933 98.4045926,40.4497933 C99.1481017,40.4497933 99.7124895,40.1495979 100.238073,39.6748621 C100.309098,39.6108296 100.418234,39.6159935 100.480251,39.6886326 L101.218217,40.5578913 C101.273651,40.6236451 101.271225,40.7214152 101.210248,40.7820051 C100.458424,41.5335265 99.5531167,42 98.3242133,42 C96.1373404,42 94.4323973,40.3220726 94.4323973,37.6533624 L94.4323973,37.6533624 Z M86.8070987,40.6601367 L87.463992,39.6438787 C87.5173473,39.5616003 87.6292548,39.5443873 87.7075554,39.6036001 C88.436513,40.1582044 89.203235,40.4811211 89.9273422,40.4811211 C90.6666937,40.4811211 91.101158,40.0817785 91.101158,39.5547151 L91.101158,39.5226988 C91.101158,38.9312587 90.4421858,38.6596369 89.412845,38.228278 C88.1579569,37.6846901 87.0967415,37.1094302 87.0967415,35.7186163 L87.0967415,35.6872886 C87.0967415,34.1529179 88.3187156,33.2099874 89.9114049,33.2099874 C90.8111686,33.2099874 91.7680987,33.51156 92.5507581,34.0331152 C92.6231688,34.0816559 92.644303,34.1787375 92.6003023,34.2541306 L91.993646,35.295864 C91.9458341,35.3781423 91.8384307,35.4025849 91.7577049,35.35129 C91.1527809,34.9691604 90.4886118,34.6961616 89.8784909,34.6961616 C89.203235,34.6961616 88.8016847,35.0634879 88.8016847,35.5272073 L88.8016847,35.5592236 C88.8016847,36.1189917 89.4769406,36.4064495 90.4744068,36.8536444 C91.7930441,37.4447403 92.7898174,38.0523607 92.7898174,39.3787978 L92.7898174,39.4108141 C92.7898174,41.0567252 91.5193385,41.9679837 89.8784909,41.9679837 C88.9056235,41.9679837 87.7844701,41.6285425 86.8420914,40.8801194 C86.7755706,40.8271032 86.7613656,40.7313987 86.8070987,40.6601367 L86.8070987,40.6601367 Z M79.5199477,40.6601367 L80.1768411,39.6438787 C80.2298499,39.5616003 80.3417574,39.5443873 80.420058,39.6036001 C81.1490156,40.1582044 81.9157376,40.4811211 82.6398448,40.4811211 C83.3795427,40.4811211 83.814007,40.0817785 83.814007,39.5547151 L83.814007,39.5226988 C83.814007,38.9312587 83.1546884,38.6596369 82.1253476,38.228278 C80.870806,37.6846901 79.8092441,37.1094302 79.8092441,35.7186163 L79.8092441,35.6872886 C79.8092441,34.1529179 81.0312182,33.2099874 82.6239075,33.2099874 C83.5233248,33.2099874 84.4806013,33.51156 85.2632607,34.0331152 C85.3360179,34.0816559 85.3564592,34.1787375 85.3128049,34.2541306 L84.7061486,35.295864 C84.6583367,35.3781423 84.5512797,35.4025849 84.4702075,35.35129 C83.8652835,34.9691604 83.2011144,34.6961616 82.59134,34.6961616 C81.9157376,34.6961616 81.5141873,35.0634879 81.5141873,35.5272073 L81.5141873,35.5592236 C81.5141873,36.1189917 82.1897897,36.4064495 83.1869094,36.8536444 C84.5058931,37.4447403 85.50232,38.0523607 85.50232,39.3787978 L85.50232,39.4108141 C85.50232,41.0567252 84.2318411,41.9679837 82.59134,41.9679837 C81.6184726,41.9679837 80.4969727,41.6285425 79.554594,40.8801194 C79.4880732,40.8271032 79.4738682,40.7313987 79.5199477,40.6601367 L79.5199477,40.6601367 Z M76.0418082,37.0133814 C76.1668813,37.0133814 76.2628515,36.9042507 76.2493394,36.7803168 C76.1156048,35.5464859 75.5151849,34.6961616 74.5156398,34.6961616 C73.5749935,34.6961616 72.8921154,35.4776337 72.709876,36.7734316 C72.6922064,36.8994311 72.7881766,37.0133814 72.9167143,37.0133814 L76.0418082,37.0133814 Z M70.8812456,37.6530181 L70.8812456,37.5407891 C70.8812456,35.0001439 72.4247372,33.1779712 74.5156398,33.1779712 C76.8317433,33.1779712 78.0544103,35.0958484 78.0544103,37.6371821 C78.0544103,37.7253129 78.0544103,37.90364 78.0464417,38.1005572 C78.0426306,38.1897208 77.9684876,38.25995 77.8784072,38.25995 L72.9402737,38.25995 C72.8096573,38.25995 72.7109154,38.3783757 72.7341284,38.5060965 C72.9648726,39.7709109 73.8095488,40.4497933 74.8537875,40.4497933 C75.5966036,40.4497933 76.1613379,40.1492536 76.6869219,39.6748621 C76.7579467,39.6104854 76.8670825,39.6156493 76.9290993,39.6882883 L77.667065,40.5578913 C77.722499,40.6233008 77.7197273,40.7210709 77.6590963,40.7820051 C76.9072722,41.5335265 76.001965,41.9996557 74.7730617,41.9996557 C72.5858423,41.9996557 70.8812456,40.3217283 70.8812456,37.6530181 L70.8812456,37.6530181 Z" id="Fill-7" fill="#AFB4BE"></path>
      </g>
    </g>
  </g>
</svg>
