<?xml version="1.0" encoding="UTF-8"?>
<svg xmlns="http://www.w3.org/2000/svg" width="82" height="28" viewBox="0 0 82 28" fill="none">
  <path d="M7.02855 13.45C8.06024 12.4048 8.92515 11.9923 9.90133 11.9923C12.1044 11.9923 12.9136 13.9176 12.9136 17.9884C12.9136 22.0314 11.9374 23.847 9.6782 23.847C8.06024 23.847 7.02855 22.6643 7.02855 20.5464V13.45ZM0 27.3401H4.26734L5.55032 24.4521C6.97305 26.735 9.31562 27.8352 12.0211 27.8352C16.5394 27.8352 20.2771 24.067 20.2771 17.5758C20.2771 12.8999 18.1853 7.81147 12.6625 7.81147C10.2081 7.81147 8.33943 8.66413 7.14012 10.4795H7.05644V0H0V27.3401Z" fill="white"></path>
  <path d="M22.7312 0H29.7598V27.3401H22.7312V0Z" fill="white"></path>
  <path d="M33.1067 8.11403H40.1353V27.3401H33.1067V8.11403ZM33.1067 0H40.1353V5.41852H33.1067V0Z" fill="white"></path>
  <path d="M55.2798 14.1377C54.6107 12.9824 53.6903 11.6897 51.9329 11.6897C50.4829 11.6897 49.8132 12.2948 49.8132 12.9274C49.8132 16.0355 60.6349 15.0453 60.6349 21.4265C60.6349 25.5798 57.0373 28 51.7935 28C46.8567 28 43.6493 25.6898 42.5057 22.554L47.9727 21.069C48.8094 22.527 49.7298 23.8745 51.7935 23.8745C53.1043 23.8745 54.0247 23.2969 54.0247 22.4442C54.0247 19.1986 43.203 20.4914 43.203 13.8079C43.203 11.7725 45.4901 7.81175 51.7935 7.81175C55.3638 7.81175 58.9615 9.26952 60.2447 13.0377L55.2798 14.1377Z" fill="white"></path>
  <path d="M73.995 14.1377C73.3256 12.9824 72.4052 11.6897 70.6481 11.6897C69.1978 11.6897 68.5281 12.2948 68.5281 12.9274C68.5281 16.0355 79.3498 15.0453 79.3498 21.4265C79.3498 25.5798 75.7522 28 70.5086 28C65.5719 28 62.3644 25.6898 61.2206 22.554L66.6876 21.0687C67.5243 22.5267 68.4447 23.8742 70.5086 23.8742C71.8195 23.8742 72.7399 23.2966 72.7399 22.4439C72.7399 19.1983 61.9182 20.4911 61.9182 13.8076C61.9182 11.7722 64.205 7.81147 70.5086 7.81147C74.0787 7.81147 77.6767 9.26924 78.9596 13.0375L73.995 14.1377Z" fill="white"></path>
  <path d="M80.7167 9.46179C81.414 9.46179 82 10.0119 82 10.727C82 11.4147 81.414 11.9648 80.7167 11.9648C79.9916 11.9648 79.4337 11.3872 79.4337 10.727C79.4337 10.0119 79.9916 9.46179 80.7167 9.46179ZM80.7167 11.7447C81.3027 11.7447 81.7766 11.2771 81.7766 10.727C81.7766 10.1494 81.3024 9.68183 80.7167 9.68183C80.131 9.68183 79.6569 10.1494 79.6569 10.727C79.6569 11.2771 80.131 11.7447 80.7167 11.7447ZM80.4657 11.3871H80.1589V10.0394H80.8004C80.8841 10.0394 81.3303 10.0394 81.3303 10.452C81.3303 10.6995 81.1351 10.782 81.0793 10.8095L81.3303 11.3871H81.0233L80.8001 10.8646H80.4654L80.4657 11.3871ZM80.4657 10.617H80.7725C80.8841 10.617 81.0514 10.5895 81.0514 10.4245C81.0514 10.342 80.9956 10.2594 80.8004 10.2594H80.4657V10.617Z" fill="white"></path>
</svg>
