<?xml version="1.0" encoding="UTF-8"?>
<svg xmlns="http://www.w3.org/2000/svg" xmlns:xlink="http://www.w3.org/1999/xlink" width="105px" height="24px" viewBox="0 0 105 24">
  <title>Larq-White</title>
  <desc>Created with Sketch.</desc>
  <g id="Page-1" stroke="none" stroke-width="1" fill="none" fill-rule="evenodd">
    <g id="Merchants" transform="translate(-549.000000, -3611.000000)" fill="#FFFFFF">
      <path d="M566.090847,3634.27745 L566.090847,3631.31818 L552.242161,3631.31818 L552.242161,3611.54933 L549,3611.54933 L549,3634.27745 L566.090847,3634.27745 Z M584.572815,3616.86562 C584.640219,3616.87022 584.707894,3616.87456 584.775568,3616.87889 C587.118197,3622.68528 589.460825,3628.49139 591.798581,3634.28612 L595.373972,3634.28612 C595.312253,3634.11219 595.27625,3633.99217 595.228066,3633.8773 C594.291177,3631.6655 593.35131,3629.45478 592.415504,3627.24271 C590.459163,3622.61809 588.507424,3617.99184 586.547563,3613.36884 C586.009414,3612.09957 585.057637,3611.46237 583.657853,3611.48594 C582.272145,3611.50896 580.885896,3611.49108 579.499917,3611.49108 L576.811065,3611.49108 C576.750158,3612.27161 576.884966,3612.91721 577.378721,3613.47369 C577.868415,3614.02582 578.465035,3614.3 579.207292,3614.29105 C580.297126,3614.27751 581.38723,3614.28753 582.6384,3614.28753 C579.690489,3621.0462 576.808899,3627.65289 573.908902,3634.30184 L577.474548,3634.30184 C579.856969,3628.44967 582.214757,3622.65764 584.572815,3616.86562 L584.572815,3616.86562 Z M606.803963,3623.67929 C609.456812,3623.67929 612.049296,3623.7034 614.641238,3623.67306 C617.679021,3623.63757 619.745537,3620.84193 618.942102,3617.90433 C618.381485,3615.85481 616.637913,3614.56658 614.340221,3614.54816 C611.96186,3614.52892 609.5835,3614.5422 607.205139,3614.54355 C607.08143,3614.54355 606.95772,3614.56333 606.803963,3614.57661 L606.803963,3623.67929 Z M603.519032,3611.49027 L604.207961,3611.49027 C607.605503,3611.49081 611.003315,3611.47429 614.400857,3611.49813 C616.325256,3611.51167 618.110245,3611.99716 619.667034,3613.20304 C622.87617,3615.68928 623.75161,3621.56962 619.509217,3624.59283 C618.626197,3625.22191 617.579133,3625.6199 616.487405,3626.18693 C618.323014,3628.81731 620.201123,3631.50783 622.128229,3634.26878 L618.052044,3634.26878 C616.425956,3631.8099 614.773339,3629.31038 613.112601,3626.79922 L606.800173,3626.79922 L606.800173,3634.2826 L603.519032,3634.2826 L603.519032,3611.49027 Z M648.782868,3627.93302 C650.679384,3625.9515 651.544267,3621.00177 648.545465,3617.35301 C645.258368,3613.35367 639.56963,3612.89093 635.863762,3616.28693 C632.040411,3619.79075 631.879074,3625.6879 635.540277,3629.26514 C639.158709,3632.80066 644.270588,3632.28889 646.830858,3629.99527 C645.948109,3629.17059 645.068879,3628.34943 644.182069,3627.52122 C644.947876,3626.76562 645.615149,3626.10674 646.421832,3625.31077 C647.201445,3626.17664 647.991886,3627.05442 648.782868,3627.93302 L648.782868,3627.93302 Z M651.334476,3630.47372 C652.216142,3631.31439 653.074528,3632.13257 653.984077,3633.00006 C653.222601,3633.69416 652.527175,3634.32784 651.789791,3635 C651.020194,3634.20647 650.166681,3633.32652 649.325619,3632.4593 C648.422026,3632.93775 647.647557,3633.40156 646.831129,3633.77164 C642.119343,3635.90704 636.320702,3634.85668 632.73719,3631.13612 C628.125563,3626.34813 628.404112,3619.03407 632.846281,3614.62971 C637.347734,3610.16601 644.618436,3609.77642 649.564105,3613.69882 C654.604789,3617.69681 655.478064,3625.03308 651.521799,3630.13832 C651.470367,3630.20442 651.438695,3630.28543 651.334476,3630.47372 L651.334476,3630.47372 Z" id="Larq-White"></path>
    </g>
  </g>
</svg>
