<?xml version="1.0" encoding="UTF-8"?>
<svg xmlns="http://www.w3.org/2000/svg" xmlns:xlink="http://www.w3.org/1999/xlink" width="133px" height="38px" viewBox="0 0 133 38">
  <title>MrsMeyers-White</title>
  <desc>Created with Sketch.</desc>
  <g id="Page-1" stroke="none" stroke-width="1" fill="none" fill-rule="evenodd">
    <g id="Merchants" transform="translate(-664.000000, -3736.000000)" fill="#FFFFFF">
      <path d="M796.33601,3757.76408 C796.323847,3757.64757 796.153565,3757.49337 796.025964,3757.45623 C795.845177,3757.40339 795.6373,3757.44274 795.43838,3757.44274 L795.43838,3758.65115 C795.46934,3758.65535 795.500301,3758.65966 795.531482,3758.66397 C795.588869,3758.50877 795.646367,3758.35358 795.755834,3758.058 C795.971451,3758.29488 796.120725,3758.4587 796.296425,3758.65159 C796.315444,3758.34451 796.365975,3758.05004 796.33601,3757.76408 L796.33601,3757.76408 Z M683.888074,3748.09448 C683.884093,3748.5079 684.236046,3748.87223 684.650031,3748.88318 C685.084361,3748.89467 685.456328,3748.51773 685.444939,3748.07779 C685.433771,3747.64658 685.096303,3747.32303 684.661641,3747.3269 C684.233503,3747.33055 683.892054,3747.66935 683.888074,3748.09448 L683.888074,3748.09448 Z M673.419479,3744.40813 L673.419479,3745.08694 C673.636313,3745.11911 673.814114,3745.14553 674.049081,3745.18046 L674.049081,3747.92613 C673.809912,3747.97167 673.617736,3748.00826 673.403557,3748.04894 L673.403557,3748.72378 L676.355409,3748.72378 L676.355409,3748.05601 C676.138687,3748.0087 675.947506,3747.96692 675.718399,3747.91685 C675.718399,3747.12705 675.669194,3746.3567 675.735317,3745.59631 C675.780762,3745.07147 676.143773,3744.84962 676.652961,3744.90036 C676.323564,3745.17007 676.123428,3745.4851 676.410475,3745.85464 C676.633942,3746.14226 676.966324,3746.21367 677.305783,3746.05162 C677.708932,3745.85895 677.898232,3745.48367 677.75294,3745.09568 C677.636617,3744.78517 677.368146,3744.46505 677.080546,3744.30223 C676.734453,3744.10636 676.323675,3744.20805 676.016614,3744.51314 C675.891335,3744.6376 675.78032,3744.77622 675.622754,3744.95363 C675.603846,3744.72968 675.590466,3744.57117 675.576645,3744.40813 L673.419479,3744.40813 Z M681.67341,3748.78866 C682.131735,3748.66166 682.524932,3748.43428 682.73701,3747.98228 C683.105439,3747.19702 682.758019,3746.41695 681.86824,3746.10843 C681.366902,3745.93467 680.834826,3745.85055 680.330392,3745.6843 C680.190076,3745.63809 680.098964,3745.44277 679.985295,3745.31587 C680.120968,3745.2134 680.243703,3745.05179 680.394525,3745.01885 C681.064707,3744.87239 681.578649,3745.12983 681.911916,3745.6906 L682.58243,3745.6906 L682.58243,3744.2998 C682.275369,3744.36579 682.017181,3744.42117 681.658151,3744.49833 C680.989517,3744.17843 680.180235,3744.11553 679.356799,3744.37861 C678.659637,3744.60146 678.294525,3745.07014 678.293195,3745.69336 C678.292093,3746.27037 678.601254,3746.66908 679.304387,3746.91614 C679.771115,3747.08007 680.267255,3747.16253 680.727791,3747.33972 C680.910789,3747.41025 681.033304,3747.63796 681.183351,3747.79415 C680.992282,3747.90601 680.809505,3748.09426 680.608483,3748.11637 C679.860458,3748.19872 679.365644,3747.79824 679.058915,3747.14849 C678.809463,3747.1612 678.598048,3747.17204 678.387628,3747.18276 L678.387628,3748.84858 C678.716361,3748.77352 678.994894,3748.70996 679.273427,3748.6464 C680.172605,3748.92098 680.917203,3748.99814 681.67341,3748.78866 L681.67341,3748.78866 Z M780.012584,3740.02505 C780.613215,3739.72803 781.213958,3739.43101 781.904153,3739.08989 C781.33603,3738.79995 780.857028,3738.53819 780.362436,3738.31037 C780.09673,3738.188 779.983061,3738.02396 779.956855,3737.72838 C779.909198,3737.19249 779.809019,3736.66124 779.712047,3736 C779.245319,3736.4846 778.883746,3736.89934 778.475953,3737.26224 C778.327454,3737.39456 778.061526,3737.47481 777.861831,3737.45458 C777.31914,3737.39964 776.782972,3737.27838 776.144967,3737.16585 C776.490286,3737.85185 776.791929,3738.45131 777.095119,3739.05385 C776.934236,3739.36027 776.781535,3739.65242 776.627396,3739.94391 C776.470493,3740.24071 776.312264,3740.53673 776.105382,3740.92572 C776.75942,3740.81816 777.279334,3740.70066 777.805107,3740.66175 C778.023157,3740.64561 778.304012,3740.74012 778.468323,3740.88448 C778.865943,3741.23357 779.211705,3741.64156 779.669697,3742.12163 C779.797077,3741.34289 779.902785,3740.69657 780.012584,3740.02505 L780.012584,3740.02505 Z M704.586536,3765.61608 L702.601643,3765.61608 L702.601643,3773.76511 L710.135855,3773.76511 L710.135855,3771.90938 L704.586536,3771.90938 L704.586536,3765.61608 Z M787.214856,3765.92548 C787.095438,3765.78355 786.911776,3765.61033 786.750672,3765.60304 C786.004858,3765.56877 785.256611,3765.58789 784.412277,3765.58789 C784.569291,3765.79737 784.659739,3765.92725 784.759476,3766.04961 C785.874935,3767.42052 786.985639,3768.7954 788.11315,3770.15624 C788.350661,3770.44309 788.459243,3770.73192 788.449844,3771.10599 C788.42773,3771.98388 788.442657,3772.86267 788.442657,3773.76256 L790.489029,3773.76256 C790.489029,3772.82199 790.467688,3771.92154 790.501966,3771.0233 C790.512249,3770.7548 790.616962,3770.44386 790.7826,3770.23494 C791.903698,3768.82159 793.053434,3767.43091 794.191339,3766.03104 C794.287869,3765.91233 794.366708,3765.77935 794.488117,3765.60315 L791.964734,3765.60315 C791.153572,3766.59568 790.339866,3767.59097 789.46811,3768.65744 C788.688239,3767.70825 787.959122,3766.81045 787.214856,3765.92548 L787.214856,3765.92548 Z M668.423245,3746.18802 C668.075494,3744.9732 667.727742,3743.75838 667.384745,3742.56047 L664.026095,3742.56047 L664.026095,3743.33634 C664.319998,3743.3695 664.568123,3743.39758 664.85119,3743.42953 C664.869434,3743.67901 664.895308,3743.87655 664.896193,3744.0743 C664.900395,3745.08694 664.898957,3746.0997 664.897962,3747.11246 C664.897188,3747.88302 664.896303,3747.88247 664.10814,3747.92978 C664.07718,3747.93166 664.047989,3747.96371 664,3747.99256 L664,3748.71869 L666.662041,3748.71869 L666.662041,3747.94824 C666.621682,3747.98052 666.581212,3748.01279 666.540853,3748.04496 C666.344918,3747.88236 665.986331,3747.72628 665.979254,3747.55594 C665.930049,3746.35516 665.953159,3745.1515 665.953159,3743.94873 C665.989758,3743.94397 666.026247,3743.93911 666.062847,3743.93436 C666.512989,3745.53363 666.963242,3747.13291 667.410619,3748.72289 L668.792116,3748.72289 C669.262936,3747.08935 669.727342,3745.47836 670.191637,3743.86748 C670.279763,3744.91749 670.279874,3745.94782 670.279763,3746.97804 C670.279653,3747.79702 670.279653,3747.79702 669.544012,3748.00074 L669.544012,3748.70775 L672.904431,3748.70775 L672.904431,3747.9678 C672.049371,3747.8534 672.049371,3747.8534 672.049261,3746.99407 C672.04915,3746.07339 672.049039,3745.15283 672.049261,3744.23215 C672.049482,3743.42809 672.049703,3743.42875 672.82902,3743.34607 C672.858322,3743.34298 672.883422,3743.30119 672.906311,3743.28107 L672.906311,3742.55108 L669.578179,3742.55108 C669.219812,3743.77485 668.869517,3744.97088 668.519333,3746.1668 C668.487267,3746.17387 668.455201,3746.18095 668.423245,3746.18802 L668.423245,3746.18802 Z M777.780892,3767.73898 C778.184041,3768.59831 778.536547,3769.34986 778.919571,3770.16641 L776.63967,3770.16641 C777.02391,3769.34942 777.378849,3768.59444 777.780892,3767.73898 L777.780892,3767.73898 Z M779.788453,3772.06491 C780.057697,3772.64247 780.326389,3773.21849 780.583029,3773.76875 L782.78951,3773.76875 C781.446935,3771.0044 780.134214,3768.30151 778.828791,3765.6142 L776.731556,3765.6142 C775.397937,3768.32351 774.070841,3771.01943 772.715771,3773.77229 L774.936185,3773.77229 C775.205651,3773.19705 775.462511,3772.64922 775.73629,3772.06491 L779.788453,3772.06491 Z M731.590746,3770.16154 L729.318916,3770.16154 C729.68646,3769.37683 730.044385,3768.61279 730.455937,3767.73422 C730.865167,3768.60947 731.212697,3769.35295 731.590746,3770.16154 L731.590746,3770.16154 Z M732.472232,3772.07707 C732.744131,3772.66337 733.004972,3773.2259 733.258516,3773.77273 L735.465439,3773.77273 C734.12408,3771.01004 732.811581,3768.30693 731.50273,3765.61144 L729.407043,3765.61144 C728.075414,3768.31709 726.748208,3771.01335 725.390153,3773.77251 L727.608575,3773.77251 C727.884344,3773.1892 728.149498,3772.6281 728.410007,3772.07707 L732.472232,3772.07707 Z M721.108662,3768.64064 L716.538354,3768.64064 L716.538354,3767.42361 L721.878138,3767.42361 L721.878138,3765.61597 L714.504256,3765.61597 L714.504256,3773.76643 L721.983514,3773.76643 L721.983514,3771.94321 L716.555382,3771.94321 L716.555382,3770.50333 L721.108662,3770.50333 L721.108662,3768.64064 Z M762.702295,3767.46164 C763.882881,3767.44616 765.050862,3767.31462 766.16997,3767.78662 C766.637914,3767.98404 766.923523,3768.34661 767.0676,3768.83574 C767.533333,3770.41755 766.871886,3771.5551 765.273334,3771.85113 C764.807049,3771.93757 764.323956,3771.94122 763.847608,3771.96343 C763.484487,3771.98035 763.120149,3771.96675 762.702295,3771.96675 L762.702295,3767.46164 Z M762.658729,3773.80081 C763.779385,3773.76942 764.916074,3773.82225 766.016384,3773.6507 C768.072707,3773.32969 769.253293,3771.77143 769.240246,3769.60675 C769.22764,3767.50773 768.0444,3765.99446 765.975472,3765.73955 C764.448903,3765.55142 762.889826,3765.62702 761.345234,3765.58701 C761.113805,3765.58115 760.882045,3765.58624 760.632592,3765.58624 L760.632592,3773.80413 C761.340148,3773.80413 761.999936,3773.81916 762.658729,3773.80081 L762.658729,3773.80081 Z M746.030343,3770.54589 C745.89478,3770.39876 745.759771,3770.25119 745.623877,3770.10451 C744.335372,3768.7136 743.049078,3767.32059 741.754491,3765.93543 C741.624015,3765.79593 741.448868,3765.61619 741.284446,3765.60536 C740.687021,3765.56557 740.085394,3765.58966 739.469282,3765.58966 L739.469282,3773.76135 L741.470319,3773.76135 L741.470319,3768.68983 C741.515211,3768.66883 741.560214,3768.64805 741.605107,3768.62705 C741.716564,3768.7682 741.818844,3768.91776 741.940806,3769.04908 C743.306712,3770.51892 744.673393,3771.98797 746.04715,3773.45029 C746.178731,3773.59034 746.351778,3773.77063 746.517748,3773.78434 C747.04131,3773.82745 747.570844,3773.80015 748.115636,3773.80015 L748.115636,3765.62515 L746.150535,3765.62515 L746.150535,3770.4988 C746.110508,3770.51449 746.07037,3770.53008 746.030343,3770.54589 L746.030343,3770.54589 Z M784.378221,3759.22683 C786.40292,3759.2065 788.436686,3759.29537 790.449554,3759.12989 C792.562159,3758.95635 793.905951,3757.67277 794.120683,3755.56723 C794.325022,3753.56162 794.24364,3751.5256 794.260447,3749.50274 C794.26476,3748.97216 794.210247,3748.43207 794.106972,3747.91143 C793.862827,3746.68124 792.726139,3745.81396 791.265692,3745.70419 C790.534364,3745.64925 789.801597,3745.61399 789.028472,3745.56746 L789.028472,3740.66341 L793.977934,3740.66341 L793.977934,3736.47996 C791.921611,3736.57016 789.905868,3736.55126 787.918321,3736.77875 C786.24657,3736.96998 785.031706,3737.93808 784.596823,3739.6648 C784.016979,3741.96732 783.994091,3744.30234 784.36064,3746.6283 C784.706733,3748.82415 785.610002,3749.57382 787.832848,3749.72437 C788.359064,3749.75997 788.886497,3749.78064 789.434496,3749.80938 L789.434496,3755.03034 L784.197987,3755.03034 L784.197987,3759.17355 C784.273508,3759.19677 784.326141,3759.22739 784.378221,3759.22683 L784.378221,3759.22683 Z M716.874717,3736.63626 C715.166477,3736.74205 713.657489,3738.34618 713.648422,3740.06816 C713.622217,3745.07733 713.61702,3750.08672 713.653288,3755.09578 C713.668436,3757.17303 715.700323,3759.15134 717.779092,3759.18693 C719.620572,3759.21854 721.462937,3759.19323 723.30497,3759.18892 C723.425605,3759.1887 723.54624,3759.15277 723.657808,3759.13487 L723.657808,3755.07931 L723.037715,3755.07931 C721.821856,3755.07931 720.605887,3755.08196 719.390028,3755.07821 C718.646978,3755.076 718.467408,3754.9051 718.462875,3754.17488 C718.455245,3752.9594 718.456793,3751.74392 718.460221,3750.52843 C718.46199,3749.90975 718.587269,3749.77953 719.208688,3749.77622 C720.498189,3749.76936 721.7878,3749.77511 723.077411,3749.77268 C723.271577,3749.77235 723.465853,3749.7561 723.666101,3749.74681 L723.666101,3745.76985 C723.432571,3745.75758 723.216622,3745.73658 723.000563,3745.73658 C721.747773,3745.73614 720.495093,3745.74763 719.242413,3745.74056 C718.68778,3745.73746 718.485984,3745.56657 718.476364,3745.02615 C718.452812,3743.70057 718.458783,3742.37444 718.463206,3741.04863 C718.464644,3740.62748 718.694525,3740.40408 719.121336,3740.40198 C719.545051,3740.39988 719.968766,3740.40331 720.392481,3740.40353 C721.473441,3740.40375 722.554512,3740.40353 723.660572,3740.40353 L723.660572,3736.35516 C721.357893,3736.44636 719.113596,3736.49753 716.874717,3736.63626 L716.874717,3736.63626 Z M756.021926,3745.76996 C755.805645,3745.75836 755.589144,3745.73669 755.372532,3745.73658 C754.156673,3745.73625 752.940814,3745.74564 751.724955,3745.74255 C751.047364,3745.74078 750.858948,3745.57873 750.846675,3744.904 C750.823897,3743.65193 750.825887,3742.39931 750.835617,3741.14712 C750.83993,3740.58548 751.041393,3740.40497 751.62555,3740.40209 C752.767767,3740.39657 753.909985,3740.40287 755.052202,3740.40408 C755.377507,3740.40441 755.702813,3740.40408 756.028339,3740.40408 L756.028339,3736.35505 C753.734395,3736.44636 751.48866,3736.49842 749.248344,3736.63703 C747.545854,3736.74227 746.040847,3738.36973 746.034655,3740.07932 C746.0163,3745.08849 746.011324,3750.09788 746.039631,3755.10695 C746.05113,3757.14152 748.080695,3759.14868 750.1201,3759.18549 C751.980046,3759.2191 753.840987,3759.19224 755.701375,3759.1898 C755.807193,3759.18969 755.912901,3759.17013 756.04006,3759.15742 L756.04006,3755.07931 L755.408247,3755.07931 C754.192388,3755.07931 752.976418,3755.08241 751.760559,3755.0781 C751.031552,3755.07544 750.846232,3754.89681 750.83993,3754.16051 C750.829978,3753.0003 750.837608,3751.83997 750.835728,3750.67976 C750.834401,3749.88753 750.937787,3749.776 751.715556,3749.77467 C753.13321,3749.77213 754.550975,3749.7739 756.021926,3749.7739 L756.021926,3745.76996 Z M736.508473,3737.25019 C736.467782,3740.2878 736.437817,3743.32562 736.373021,3746.36267 C736.36307,3746.82638 736.284452,3747.33475 736.075138,3747.73822 C735.639039,3748.57864 734.665887,3748.59655 734.177045,3747.78497 C733.980114,3747.45811 733.880599,3747.02601 733.872527,3746.63902 C733.806404,3743.47308 733.772569,3740.30637 733.727677,3737.13999 C733.724912,3736.94389 733.711091,3736.7479 733.702245,3736.54739 L729.089699,3736.54739 C729.089699,3737.31165 729.080963,3738.04386 729.091357,3738.77563 C729.12862,3741.40766 729.084833,3744.04479 729.242068,3746.66975 C729.363809,3748.70167 730.283111,3750.43204 732.020542,3751.58872 C732.579267,3751.96068 732.764145,3752.36382 732.752092,3752.98737 C732.719695,3754.66236 732.724228,3756.33813 732.71505,3758.01345 C732.712839,3758.3937 732.714719,3758.77396 732.714719,3759.14426 L737.514244,3759.14426 C737.514244,3758.82536 737.514907,3758.54967 737.514133,3758.27399 C737.50971,3756.4144 737.489586,3754.55458 737.516344,3752.69543 C737.520436,3752.40461 737.653565,3751.98578 737.868961,3751.84804 C740.07887,3750.43514 740.9995,3748.34773 741.055781,3745.82601 C741.121351,3742.88114 741.126437,3739.93496 741.155704,3736.98932 C741.157066,3736.8475 741.137716,3736.70557 741.126327,3736.54042 L736.508805,3736.54042 C736.508805,3736.81323 736.511348,3737.03177 736.508473,3737.25019 L736.508473,3737.25019 Z M766.614141,3740.58393 C766.621328,3740.06186 766.774029,3739.93739 767.296817,3739.98824 C768.400224,3740.09557 769.138187,3740.67546 769.468689,3741.73132 C769.817104,3742.84456 769.672807,3743.91236 769.048291,3744.89759 C768.655205,3745.51771 768.105658,3745.91654 767.336624,3745.94174 C766.728805,3745.96175 766.617679,3745.86713 766.612703,3745.26646 C766.606401,3744.49523 766.611155,3743.724 766.611155,3742.95277 C766.611376,3742.16309 766.603415,3741.3734 766.614141,3740.58393 L766.614141,3740.58393 Z M774.614202,3758.97834 C774.594293,3756.492 774.652233,3754.00134 774.520873,3751.52085 C774.43739,3749.94324 773.864402,3748.49585 772.400528,3747.59496 C772.317156,3747.54367 772.268062,3747.43656 772.195637,3747.34613 C772.260764,3747.24776 772.297695,3747.15988 772.361385,3747.10085 C773.47994,3746.06466 774.056467,3744.74483 774.273853,3743.27334 C774.550949,3741.39639 774.334005,3739.63562 772.869246,3738.22271 C771.708121,3737.10251 770.298317,3736.56662 768.723207,3736.53357 C766.642668,3736.48991 764.560029,3736.54076 762.478385,3736.55435 C762.353769,3736.55513 762.229375,3736.58508 762.079659,3736.60487 L762.079659,3759.1698 L766.699613,3759.1698 C766.699613,3758.8982 766.699724,3758.66242 766.699613,3758.42687 C766.698839,3755.70054 766.699835,3752.97421 766.694417,3750.248 C766.693864,3749.95739 766.68546,3749.69508 767.052783,3749.60754 C768.443568,3749.27592 769.679441,3750.183 769.720906,3751.60961 C769.787802,3753.91092 769.826835,3756.213 769.876371,3758.51474 C769.881015,3758.72886 769.877035,3758.94308 769.877035,3759.18107 L774.560458,3759.18107 C774.587548,3759.08269 774.614639,3759.03041 774.614202,3758.97834 L774.614202,3758.97834 Z M708.652299,3758.73461 C708.678173,3755.21704 708.717758,3751.69948 708.725056,3748.18181 C708.72959,3745.97247 708.721075,3743.76181 708.648208,3741.55402 C708.612051,3740.45847 708.235992,3739.42593 707.650067,3738.48856 C706.551083,3736.73011 704.596156,3735.89665 702.557856,3736.25943 C701.177464,3736.50505 700.218356,3737.35432 699.352239,3738.36299 C699.202302,3738.53764 699.056014,3738.71538 698.871357,3738.93547 C698.669341,3738.69129 698.522058,3738.50713 698.368361,3738.32861 C697.664676,3737.51117 696.901502,3736.75841 695.842435,3736.42723 C693.836865,3735.80004 691.082275,3736.279 689.759823,3739.10835 C689.252515,3740.19351 689.033249,3741.34079 689.037499,3742.53649 C689.057354,3747.95111 689.073277,3753.36574 689.092627,3758.78026 C689.093069,3758.9034 689.119607,3759.02643 689.134534,3759.15454 L693.758248,3759.15454 C693.758248,3758.89931 693.758358,3758.68033 693.758248,3758.46146 C693.757806,3753.41482 693.748186,3748.36818 693.7703,3743.32164 C693.772733,3742.78354 693.907853,3742.22897 694.076698,3741.71319 C694.243663,3741.20295 694.690598,3741.01912 695.224333,3741.03504 C695.753645,3741.05084 696.120305,3741.3115 696.249122,3741.80129 C696.378714,3742.29407 696.474691,3742.81117 696.479777,3743.31866 C696.529756,3748.30948 696.557842,3753.30052 696.591677,3758.29157 C696.593667,3758.57952 696.592009,3758.86747 696.592009,3759.15432 L701.151812,3759.15432 C701.151812,3758.89953 701.150595,3758.68099 701.152033,3758.46246 C701.185094,3753.45307 701.211742,3748.44345 701.261721,3743.43417 C701.267028,3742.88955 701.36389,3742.33508 701.498457,3741.8056 C701.62241,3741.31802 701.989622,3741.05018 702.520593,3741.03526 C703.051564,3741.02034 703.505354,3741.19355 703.669223,3741.70899 C703.839284,3742.24345 703.979159,3742.81504 703.981481,3743.37105 C704.003043,3748.41759 703.991543,3753.46434 703.989664,3758.51099 C703.989664,3758.72433 703.989664,3758.93766 703.989664,3759.17068 L708.652189,3759.17068 C708.652189,3758.98719 708.651415,3758.86084 708.652299,3758.73461 L708.652299,3758.73461 Z M795.844072,3759.0566 C795.313875,3759.04953 794.885847,3758.60152 794.890934,3758.05888 C794.89602,3757.51558 795.331124,3757.08371 795.867292,3757.09001 C796.408546,3757.09642 796.827175,3757.53128 796.821535,3758.08121 C796.815896,3758.62296 796.374268,3759.06368 795.844072,3759.0566 L795.844072,3759.0566 Z M797,3757.64027 C796.908003,3757.53327 796.818108,3757.42439 796.723789,3757.31949 C796.36686,3756.92299 795.780492,3756.81565 795.319293,3757.06072 C794.825806,3757.32303 794.600459,3757.88346 794.77251,3758.42012 C794.939807,3758.94098 795.393708,3759.23236 795.958183,3759.20384 C796.491254,3759.17676 796.752206,3758.808 797,3758.41404 L797,3757.64027 Z M692.619237,3774 C692.537413,3773.96551 692.458575,3773.91654 692.373212,3773.89875 C690.091763,3773.42188 688.805469,3771.75485 688.914715,3769.4122 C689.026836,3767.01042 690.4791,3765.61464 693.109075,3765.40539 C694.073823,3765.32879 695.023643,3765.42562 695.92437,3765.8124 C697.12121,3766.32618 697.778455,3767.25703 698.035648,3768.55464 L696.067009,3768.55464 C695.363323,3767.22365 693.93439,3766.97217 692.432148,3767.46219 C691.425714,3767.79049 690.910444,3768.75074 691.015378,3769.93947 C691.119095,3771.11671 691.784854,3771.85356 692.958806,3772.09033 C694.408858,3772.38304 695.497669,3771.86041 696.15215,3770.54135 C696.285832,3770.53373 696.431125,3770.51936 696.576639,3770.51847 C697.072558,3770.51549 697.568588,3770.51737 698.130851,3770.51737 C697.975607,3771.85367 697.392998,3772.85814 696.213076,3773.43294 C695.676908,3773.69414 695.072406,3773.81529 694.498975,3774 L692.619237,3774 Z" id="MrsMeyers-White"></path>
    </g>
  </g>
</svg>
