<?xml version="1.0" encoding="UTF-8" standalone="no"?>
<svg width="132px" height="30px" viewBox="0 0 132 30" version="1.1" xmlns="http://www.w3.org/2000/svg" xmlns:xlink="http://www.w3.org/1999/xlink">
    <!-- Generator: Sketch Beta 3.7 (28138) - http://www.bohemiancoding.com/sketch -->
    <title>Fill-1</title>
    <desc>Created with Sketch Beta.</desc>
    <defs></defs>
    <g id="Page-1" stroke="none" stroke-width="1" fill="none" fill-rule="evenodd">
        <g id="bc-logo-bright" fill="#FFFFFF">
            <g id="Page-1">
                <g id="Style-Guide---Navigation-Elements">
                    <g id="Footer">
                        <path d="M38.6190192,17.8511664 C38.1021204,17.1432408 37.223214,16.5642264 36.1587996,16.5642264 C34.1873808,16.5642264 32.7656412,18.0834996 32.7656412,20.1413652 C32.7656412,22.1999592 34.1873808,23.7188676 36.1587996,23.7188676 C37.0798512,23.7188676 37.940748,23.3222988 38.3910072,22.9271856 C38.4212652,22.900602 38.4367536,22.8623652 38.4367536,22.8219432 L38.4367536,21.7057944 C38.4367536,21.6358764 38.3805612,21.5787024 38.3110416,21.5787024 L35.7755376,21.5787024 C35.67468,21.5787024 35.5929132,21.496038 35.5929132,21.3944376 L35.5929132,19.7378772 C35.5929132,19.635912 35.67468,19.5532476 35.7755376,19.5532476 L40.321722,19.5532476 L40.321722,17.0948076 L38.8538748,17.9065188 C38.7757092,17.9498532 38.6719692,17.9236344 38.6190192,17.8511664 L38.6190192,17.8511664 Z M17.2776736,19.0144368 L19.9857166,19.0144368 C20.7612442,19.0144368 21.246084,18.5730756 21.246084,17.8709772 C21.246084,17.2009236 20.7612442,16.7275164 19.9857166,16.7275164 L17.2776736,16.7275164 C17.1847399,16.7275164 17.1098167,16.8036252 17.1098167,16.8972144 L17.1098167,18.8447388 C17.1098167,18.938328 17.1847399,19.0144368 17.2776736,19.0144368 L17.2776736,19.0144368 Z M28.2876084,25.4290704 C28.2876084,25.5131916 28.2202488,25.5809244 28.137402,25.5809244 L26.1436507,25.5809244 C26.0604427,25.5809244 25.9930838,25.5131916 25.9930838,25.4290704 L25.9930838,14.837856 C25.9930838,14.7540996 26.0604427,14.6860008 26.1436507,14.6860008 L28.137402,14.6860008 C28.2202488,14.6860008 28.2876084,14.7540996 28.2876084,14.837856 L28.2876084,25.4290704 L28.2876084,25.4290704 Z M19.976171,14.6860008 L20.4865856,14.6860008 C22.53869,14.6860008 23.5886962,16.0086288 23.5886962,17.4623532 C23.5886962,18.5934324 23.0040787,19.4288148 22.2195458,19.7980716 C22.0891506,19.8596148 22.0938334,20.0460648 22.2271103,20.1010524 C23.1416782,20.4794148 23.7990576,21.4688364 23.7990576,22.624314 C23.7990576,24.27432 22.732482,25.5809244 20.6645284,25.5809244 L14.9833294,25.5809244 C14.8903957,25.5809244 14.8151123,25.5051792 14.8151123,25.4112264 L14.8151123,18.5005716 L0.148166885,29.3419644 C-0.132795235,29.5498992 0.0123685254,30 0.361049765,30 L39.9615864,30 C40.1604204,30 40.321794,29.8368564 40.321794,29.6358408 L40.321794,24.1526916 C39.262062,25.1515812 37.868778,25.7772072 36.1585116,25.7772072 C32.991924,25.7772072 30.4067112,23.5722216 30.4067112,20.1414744 C30.4067112,16.6947048 32.991924,14.5061064 36.1585116,14.5061064 C38.14974,14.5061064 39.4835904,15.4179624 40.321794,16.531926 L40.321794,0.364701604 C40.321794,0.0668196039 39.9868008,-0.105064796 39.7487028,0.0708252039 L19.976171,14.6860008 L19.976171,14.6860008 Z M17.2776736,23.5390092 L20.0826125,23.5390092 C20.9388268,23.5390092 21.4557251,23.0816256 21.4557251,22.29759 C21.4557251,21.6118776 20.9716056,21.0561708 20.0826125,21.0561708 L17.2776736,21.0561708 C17.1847399,21.0561708 17.1098167,21.1322796 17.1098167,21.2258688 L17.1098167,23.3693112 C17.1098167,23.4629004 17.1847399,23.5390092 17.2776736,23.5390092 L17.2776736,23.5390092 Z M51.8142996,23.2085352 L50.5784256,22.5606948 C50.49882,22.5188172 50.3983224,22.5494064 50.3500536,22.62588 C49.8273924,23.454342 48.8631156,24.069408 47.8152708,24.069408 C45.758124,24.069408 44.230842,22.4033784 44.230842,20.1324804 C44.230842,17.8295352 45.758124,16.1959164 47.8152708,16.1959164 C48.8623956,16.1959164 49.8263112,16.795686 50.3493336,17.6354388 C50.3979612,17.7137328 50.49954,17.7439572 50.5802268,17.6998944 L51.8067348,17.0243784 C51.9000288,16.9730316 51.932808,16.8554088 51.8755344,16.7643684 C51.0996468,15.5298684 49.8147852,14.4971124 47.8152708,14.4971124 C44.7448584,14.4971124 42.360282,16.7680104 42.360282,20.1324804 C42.360282,23.4812904 44.7448584,25.768212 47.8152708,25.768212 C49.812624,25.768212 51.0827172,24.708144 51.8849004,23.4729144 C51.9457752,23.3793252 51.912276,23.259882 51.8142996,23.2085352 L51.8142996,23.2085352 Z M58.2562572,24.0694812 C56.1501216,24.0694812 54.8083476,22.3706772 54.8083476,20.1325524 C54.8083476,17.87877 56.1501216,16.1959884 58.2562572,16.1959884 C60.3465432,16.1959884 61.7038068,17.87877 61.7038068,20.1325524 C61.7038068,22.3706772 60.3465432,24.0694812 58.2562572,24.0694812 L58.2562572,24.0694812 Z M56.7830064,14.68764 C54.4657896,15.3136308 52.9363464,17.4221136 52.9363464,20.1325524 C52.9363464,23.383404 55.136136,25.7682852 58.2562572,25.7682852 C60.9131508,25.7682852 62.9187888,24.0214116 63.44181,21.4795788 C64.293702,17.3401776 60.6991872,13.6301208 56.7830064,14.68764 L56.7830064,14.68764 Z M76.518186,14.6770428 L74.1530604,14.6770428 C74.0478792,14.6770428 73.9535052,14.7418632 73.9149624,14.8409148 L71.0545524,22.3167444 L68.1779316,14.8401864 C68.13939,14.7418632 68.0450148,14.6770428 67.9398348,14.6770428 L65.5743492,14.6770428 C65.5044684,14.6770428 65.447556,14.7345804 65.447556,14.8052268 L65.447556,25.444146 C65.447556,25.5147936 65.5044684,25.57233 65.5743492,25.57233 L67.2114936,25.57233 C67.2813744,25.57233 67.3382868,25.5147936 67.3382868,25.444146 L67.3382868,17.1598824 L70.6280664,25.5144288 C70.6417536,25.5493884 70.6752528,25.57233 70.7123544,25.57233 L71.3967492,25.57233 C71.4338508,25.57233 71.46735,25.5493884 71.4810384,25.5144288 L74.7546072,17.1598824 L74.7546072,25.444146 C74.7546072,25.5147936 74.8111608,25.57233 74.8814004,25.57233 L76.518186,25.57233 C76.5884256,25.57233 76.6449792,25.5147936 76.6449792,25.444146 L76.6449792,14.8052268 C76.6449792,14.7345804 76.5884256,14.6770428 76.518186,14.6770428 L76.518186,14.6770428 Z M100.694512,14.6770428 L93.6999948,14.6770428 C93.5922924,14.6770428 93.505122,14.7651696 93.505122,14.8740528 L93.505122,25.37532 C93.505122,25.4842044 93.5922924,25.57233 93.6999948,25.57233 L100.694512,25.57233 C100.802214,25.57233 100.889384,25.4842044 100.889384,25.37532 L100.889384,24.0869244 C100.889384,23.97804 100.802214,23.8899132 100.694512,23.8899132 L95.5907256,23.8899132 C95.4830232,23.8899132 95.3958528,23.8017876 95.3958528,23.6929032 L95.3958528,21.0483768 C95.3958528,20.9394936 95.4830232,20.8513668 95.5907256,20.8513668 L100.581767,20.8513668 C100.689108,20.8513668 100.776638,20.7628764 100.776638,20.6543568 L100.776638,19.36596 C100.776638,19.2570768 100.689108,19.16895 100.581767,19.16895 L95.5907256,19.16895 C95.4830232,19.16895 95.3958528,19.0808232 95.3958528,18.97194 L95.3958528,16.5564696 C95.3958528,16.4475864 95.4830232,16.3594596 95.5907256,16.3594596 L100.694512,16.3594596 C100.802214,16.3594596 100.889384,16.2709692 100.889384,16.1624496 L100.889384,14.8740528 C100.889384,14.7651696 100.802214,14.6770428 100.694512,14.6770428 L100.694512,14.6770428 Z M108.068219,19.822398 L105.659869,19.822398 C105.553248,19.822398 105.466798,19.7349996 105.466798,19.6272084 L105.466798,16.5544308 C105.466798,16.4466396 105.553248,16.3592412 105.659869,16.3592412 L108.068219,16.3592412 C109.134074,16.3592412 109.909962,17.0292948 109.909962,18.0747972 C109.909962,19.136322 109.134074,19.822398 108.068219,19.822398 L108.068219,19.822398 Z M109.551556,21.2360652 C110.757892,20.928714 111.848602,19.8843048 111.848602,18.0908196 C111.848602,16.0653648 110.44307,14.6771892 108.310279,14.6771892 L103.769138,14.6771892 C103.662516,14.6771892 103.576067,14.7645876 103.576067,14.8723788 L103.576067,25.376922 C103.576067,25.4847132 103.662516,25.5724764 103.769138,25.5724764 L105.273366,25.5724764 C105.379987,25.5724764 105.466798,25.4847132 105.466798,25.376922 L105.466798,21.7000044 C105.466798,21.5922132 105.553248,21.5048148 105.659869,21.5048148 L107.246945,21.5048148 C107.315384,21.5048148 107.378422,21.5412312 107.413361,21.6005892 L109.676188,25.4763384 C109.710767,25.5356964 109.774164,25.5724764 109.842604,25.5724764 L111.580967,25.5724764 C111.732614,25.5724764 111.825908,25.4045988 111.745222,25.2745932 C111.246334,24.4687092 109.876463,22.256076 109.425842,21.5281212 C109.354162,21.4130472 109.42116,21.2692032 109.551556,21.2360652 L109.551556,21.2360652 Z M126.696659,16.3593504 L131.810171,16.3593504 C131.914991,16.3593504 132,16.2734088 132,16.1670744 L132,14.8692096 C132,14.76324 131.914991,14.6769336 131.810171,14.6769336 L124.805928,14.6769336 C124.701107,14.6769336 124.615738,14.76324 124.615738,14.8692096 L124.615738,25.3799448 C124.615738,25.4862792 124.701107,25.5722208 124.805928,25.5722208 L131.810171,25.5722208 C131.914991,25.5722208 132,25.4862792 132,25.3799448 L132,24.0820812 C132,23.9761104 131.914991,23.8901688 131.810171,23.8901688 L126.696659,23.8901688 C126.591479,23.8901688 126.50647,23.8038624 126.50647,23.6978928 L126.50647,21.0435336 C126.50647,20.9371992 126.591479,20.8512576 126.696659,20.8512576 L131.697065,20.8512576 C131.802246,20.8512576 131.887255,20.765316 131.887255,20.6589816 L131.887255,19.3611168 C131.887255,19.2551472 131.802246,19.1688408 131.697065,19.1688408 L126.696659,19.1688408 C126.591479,19.1688408 126.50647,19.0828992 126.50647,18.9765648 L126.50647,16.5516264 C126.50647,16.445292 126.591479,16.3593504 126.696659,16.3593504 L126.696659,16.3593504 Z M122.686789,23.163234 L121.450915,22.5153936 C121.37131,22.473516 121.270812,22.5041052 121.222543,22.5805788 C120.699882,23.4090408 119.735605,24.0241068 118.68776,24.0241068 C116.630614,24.0241068 115.103332,22.3580772 115.103332,20.087178 C115.103332,17.784234 116.630614,16.150614 118.68776,16.150614 C119.734885,16.150614 120.698801,16.7503848 121.221823,17.5901364 C121.270451,17.6684316 121.37203,17.698656 121.452716,17.6545932 L122.679224,16.9790772 C122.772518,16.9277304 122.805298,16.8097428 122.748024,16.7190672 C121.972136,15.4845672 120.687275,14.45181 118.68776,14.45181 C115.617348,14.45181 113.232772,16.7227092 113.232772,20.087178 C113.232772,23.4359892 115.617348,25.7229108 118.68776,25.7229108 C120.684754,25.7229108 121.955207,24.6628428 122.75739,23.4276132 C122.818265,23.334024 122.784766,23.2145796 122.686789,23.163234 L122.686789,23.163234 Z M90.4764936,14.6770428 L88.1113692,14.6770428 C88.006188,14.6770428 87.911814,14.7418632 87.8732712,14.8409148 L85.01286,22.3167444 L82.1362404,14.8401864 C82.0976976,14.7418632 82.0033236,14.6770428 81.8981424,14.6770428 L79.5326568,14.6770428 C79.4627772,14.6770428 79.4058636,14.7345804 79.4058636,14.8052268 L79.4058636,25.444146 C79.4058636,25.5147936 79.4627772,25.57233 79.5326568,25.57233 L81.1698024,25.57233 C81.2396832,25.57233 81.2965956,25.5147936 81.2965956,25.444146 L81.2965956,17.1598824 L84.586374,25.5144288 C84.6000624,25.5493884 84.6335616,25.57233 84.6706632,25.57233 L85.355058,25.57233 C85.3921596,25.57233 85.4256588,25.5493884 85.439346,25.5144288 L88.712916,17.1598824 L88.712916,25.444146 C88.712916,25.5147936 88.7694684,25.57233 88.8397092,25.57233 L90.4764936,25.57233 C90.5467344,25.57233 90.6032868,25.5147936 90.6032868,25.444146 L90.6032868,14.8052268 C90.6032868,14.7345804 90.5467344,14.6770428 90.4764936,14.6770428 L90.4764936,14.6770428 Z" id="Fill-1"></path>
                    </g>
                </g>
            </g>
        </g>
    </g>
</svg>