<?xml version="1.0" encoding="UTF-8"?>
<svg xmlns="http://www.w3.org/2000/svg" xmlns:xlink="http://www.w3.org/1999/xlink" width="135px" height="20px" viewBox="0 0 135 20">
  <title>Burrow-White</title>
  <desc>Created with Sketch.</desc>
  <g id="Page-1" stroke="none" stroke-width="1" fill="none" fill-rule="evenodd">
    <g id="Merchants" transform="translate(-549.000000, -3300.000000)" fill="#FFFFFF">
      <path d="M585.278586,3300.71505 C585.810878,3303.2681 586.135808,3305.84418 586.097854,3308.45234 C586.072859,3310.17243 585.888177,3311.87356 585.124915,3313.46447 C583.451202,3316.953 578.837381,3317.692 576.288394,3314.86793 C575.36961,3313.84978 574.893324,3312.61888 574.662818,3311.30306 C574.164777,3308.4573 574.403152,3305.61968 574.828986,3302.78884 C574.948405,3301.99654 575.096058,3301.20832 575.234917,3300.39705 L571.341312,3300.39705 C571.296414,3300.54566 571.24411,3300.66311 571.22791,3300.78461 C570.993238,3302.55395 570.683583,3304.31832 570.551667,3306.09488 C570.348933,3308.82364 570.471592,3311.54517 571.33622,3314.18088 C572.281387,3317.06141 574.181903,3319.0033 577.264109,3319.67634 C579.31089,3320.12308 581.37526,3320.10953 583.422967,3319.62214 C585.648413,3319.09274 587.315647,3317.84738 588.408004,3315.87975 C589.157842,3314.5296 589.549425,3313.06833 589.75725,3311.55827 C590.123838,3308.89456 590.063203,3306.22768 589.735958,3303.56668 C589.604968,3302.50065 589.382794,3301.44546 589.201814,3300.3835 L585.223968,3300.3835 C585.249888,3300.5416 585.260534,3300.62878 585.278586,3300.71505 L585.278586,3300.71505 Z M597.038088,3309.43796 C597.101038,3309.45693 597.163987,3309.47545 597.226474,3309.49397 C597.260726,3309.50617 597.294515,3309.5292 597.328767,3309.5292 C598.697916,3309.53417 600.067065,3309.55043 601.436215,3309.53598 C602.50728,3309.52469 603.584826,3309.53824 604.647097,3309.42893 C606.210186,3309.26721 607.015105,3308.37509 607.072037,3306.89937 C607.135912,3305.24477 606.365708,3304.21397 604.809562,3303.91088 C604.395299,3303.83002 603.966688,3303.78982 603.544094,3303.78666 C601.786602,3303.77311 600.028648,3303.78033 598.270693,3303.78214 C598.108691,3303.78214 597.947152,3303.7975 597.630553,3303.81331 C597.432448,3305.69557 597.235268,3307.56699 597.038088,3309.43796 L597.038088,3309.43796 Z M603.694524,3312.82982 L597.271372,3312.82982 C597.677765,3315.11953 598.073051,3317.3496 598.47389,3319.60994 L594.531684,3319.60994 C593.061168,3313.19616 592.732535,3306.79638 594.576119,3300.37085 C594.707109,3300.36001 594.832082,3300.34014 594.957518,3300.34059 C598.104525,3300.34601 601.252458,3300.3171 604.398539,3300.37492 C606.245363,3300.40879 607.996375,3300.84469 609.403479,3302.12573 C610.269496,3302.91441 610.801326,3303.8919 610.993877,3305.03382 C611.527558,3308.20525 610.480562,3310.54283 607.850573,3311.91376 C607.770035,3311.95532 607.695977,3312.00862 607.564061,3312.09083 C608.941079,3314.58109 610.313005,3317.06322 611.721035,3319.60994 L607.373361,3319.60994 C606.148162,3317.35231 604.921575,3315.09152 603.694524,3312.82982 L603.694524,3312.82982 Z M618.546416,3309.54005 L619.195813,3309.54005 C621.044952,3309.54005 622.89409,3309.54727 624.743229,3309.53508 C625.203315,3309.53237 625.668955,3309.50346 626.121173,3309.42531 C626.923777,3309.28709 627.652324,3308.99664 628.08649,3308.25629 C629.151075,3306.44179 628.12537,3304.19229 626.020268,3303.90771 C624.82099,3303.74555 623.588848,3303.80382 622.370592,3303.7844 C621.302304,3303.76769 620.233553,3303.78124 619.150453,3303.78124 C618.649635,3305.67524 618.468655,3307.54712 618.546416,3309.54005 L618.546416,3309.54005 Z M615.928925,3300.43635 C619.542961,3300.43635 623.076458,3300.39253 626.608105,3300.46706 C627.483842,3300.48558 628.399848,3300.77874 629.213099,3301.13017 C631.780601,3302.23956 632.67115,3304.54372 632.478136,3307.0936 C632.312894,3309.27625 631.206188,3310.85225 629.257997,3311.89389 C629.176995,3311.9368 629.098772,3311.98468 629.020548,3312.03301 C629.006662,3312.0416 628.999719,3312.06238 628.952507,3312.13194 C630.310085,3314.58696 631.682474,3317.07 633.088652,3319.6131 L628.743755,3319.6131 C627.527814,3317.37445 626.292432,3315.10055 625.051959,3312.81673 L618.73943,3312.81673 C618.937536,3315.11998 619.349021,3317.35773 619.941486,3319.61085 L615.901616,3319.61085 C614.422305,3313.20926 614.086729,3306.8027 615.928925,3300.43635 L615.928925,3300.43635 Z M552.8004,3308.27481 C553.44054,3308.27481 553.935803,3308.27617 554.431067,3308.27481 C556.53802,3308.26849 558.645437,3308.28566 560.75239,3308.24545 C561.881313,3308.22422 562.616803,3307.66953 562.901001,3306.76611 C563.429591,3305.08893 562.450635,3303.69135 560.660743,3303.66153 C558.369107,3303.62404 556.076546,3303.65115 553.784447,3303.65521 C553.680766,3303.65521 553.57801,3303.70038 553.397956,3303.74329 C553.203554,3305.21812 553.008688,3306.69565 552.8004,3308.27481 L552.8004,3308.27481 Z M553.387311,3316.35088 C556.077472,3316.35088 558.625534,3316.38792 561.171744,3316.331 C562.113208,3316.31022 562.961173,3315.89465 563.297212,3314.93794 C563.793864,3313.52365 563.299526,3311.77283 561.165727,3311.56866 C560.908838,3311.54427 560.650097,3311.52078 560.392282,3311.52033 C558.099258,3311.51671 555.806697,3311.51807 553.514135,3311.51942 C553.315567,3311.51942 553.117461,3311.53569 552.788366,3311.55014 C552.9911,3313.17719 553.186428,3314.74325 553.387311,3316.35088 L553.387311,3316.35088 Z M550.253727,3300.38305 C550.349539,3300.36317 550.403231,3300.34285 550.456924,3300.34285 C554.10336,3300.34781 557.750722,3300.33336 561.397158,3300.3713 C562.747793,3300.38576 564.038256,3300.71053 565.147739,3301.5218 C567.681915,3303.3756 567.717556,3307.55073 565.219946,3309.48991 C565.078772,3309.59922 564.934822,3309.70582 564.760322,3309.83817 C564.860301,3309.90954 564.926953,3309.96736 565.002863,3310.00937 C566.908934,3311.05778 567.676824,3312.69431 567.50973,3314.76539 C567.335693,3316.92861 566.158169,3318.41608 564.066953,3319.10764 C563.136135,3319.41571 562.121076,3319.60768 561.140269,3319.6244 C557.623435,3319.68493 554.105211,3319.64789 550.587914,3319.64653 C550.49673,3319.64653 550.406009,3319.63162 550.249561,3319.61807 C548.579088,3313.20068 548.586493,3306.79141 550.253727,3300.38305 L550.253727,3300.38305 Z M662.805396,3319.61627 L667.784416,3319.61627 C669.255858,3316.25557 670.719431,3312.91339 672.229754,3309.46461 C673.738688,3312.93372 675.195319,3316.28177 676.647783,3319.62123 L681.559688,3319.62123 C683.731905,3315.09468 684.698363,3305.19327 683.44169,3300.36317 L679.694349,3300.36317 C680.136383,3302.93971 680.363649,3305.50043 680.230808,3308.08555 C680.085931,3310.91233 679.390711,3314.9533 678.871378,3315.71533 C677.143047,3311.76877 675.424436,3307.84479 673.715545,3303.94295 L670.826816,3303.94295 C669.101725,3307.87054 667.384502,3311.78096 665.666817,3315.69093 C665.598776,3315.68371 665.530735,3315.67603 665.462231,3315.66835 C665.160907,3314.0937 664.792931,3312.52763 664.571219,3310.94259 C664.077807,3307.41522 664.194912,3303.89055 664.860509,3300.36724 L660.9146,3300.36724 C659.854643,3306.95809 660.4684,3313.36058 662.805396,3319.61627 L662.805396,3319.61627 Z M653.247271,3310.5993 C653.254677,3307.51775 652.32571,3305.49682 649.958165,3304.27766 C648.598736,3303.57752 647.122665,3303.38012 645.601696,3303.47001 C642.048758,3303.6796 639.607155,3305.88077 639.25399,3309.3169 C639.039222,3311.4074 639.500697,3313.34929 641.14849,3314.85754 C642.364431,3315.97009 643.870125,3316.4227 645.491998,3316.5424 C649.691556,3316.85182 653.31022,3314.61813 653.247271,3310.5993 L653.247271,3310.5993 Z M647.091653,3300 C647.924807,3300.14003 648.768144,3300.23715 649.589263,3300.42731 C654.368326,3301.53219 657.184385,3305.04782 657.206787,3309.84721 C657.218637,3312.36728 656.641447,3314.68363 654.903858,3316.62145 C653.285226,3318.42692 651.178272,3319.3737 648.796841,3319.76352 C645.956713,3320.22878 643.179996,3320.02596 640.577779,3318.73182 C637.346994,3317.12556 635.614497,3314.51469 635.312247,3310.99364 C635.09609,3308.48215 635.571914,3306.13101 637.126671,3304.07304 C638.809179,3301.84567 641.163764,3300.69969 643.904377,3300.22766 C644.409361,3300.14093 644.91851,3300.07544 645.425808,3300 L647.091653,3300 Z" id="Burrow-White"></path>
    </g>
  </g>
</svg>
